<svg width="40" height="40" viewBox="0 0 40 40" fill="none" xmlns="http://www.w3.org/2000/svg">
<path d="M31.6667 18.3334H11.9L17.95 11.0667C18.2329 10.7264 18.369 10.2876 18.3284 9.84685C18.2878 9.40614 18.0737 8.99962 17.7334 8.71672C17.393 8.43382 16.9542 8.29772 16.5135 8.33835C16.0728 8.37898 15.6663 8.59302 15.3834 8.93339L7.05002 18.9334C6.99395 19.0129 6.94382 19.0965 6.90002 19.1834C6.90002 19.2667 6.90002 19.3167 6.78335 19.4001C6.70781 19.5911 6.66826 19.7946 6.66669 20C6.66826 20.2055 6.70781 20.409 6.78335 20.6C6.78335 20.6834 6.78335 20.7334 6.90002 20.8167C6.94382 20.9036 6.99395 20.9872 7.05002 21.0667L15.3834 31.0667C15.5401 31.2549 15.7363 31.4062 15.9581 31.5099C16.1799 31.6136 16.4218 31.6671 16.6667 31.6667C17.0561 31.6675 17.4335 31.5318 17.7334 31.2834C17.9021 31.1435 18.0416 30.9716 18.1439 30.7777C18.2461 30.5838 18.3091 30.3716 18.3292 30.1533C18.3494 29.935 18.3262 29.7149 18.2612 29.5056C18.1961 29.2962 18.0904 29.1018 17.95 28.9334L11.9 21.6667H31.6667C32.1087 21.6667 32.5326 21.4911 32.8452 21.1786C33.1578 20.866 33.3334 20.4421 33.3334 20C33.3334 19.558 33.1578 19.1341 32.8452 18.8215C32.5326 18.509 32.1087 18.3334 31.6667 18.3334Z" fill="black"/>
</svg>
