<svg width="30" height="30" viewBox="0 0 30 30" fill="none" xmlns="http://www.w3.org/2000/svg">
<path d="M27.8705 13.0748L22.5811 12.2598L19.3577 6.99402C19.1885 6.7184 18.951 6.49111 18.6682 6.33415C18.3854 6.17719 18.0669 6.09588 17.7435 6.09807L4.23428 6.2057C3.84449 6.20899 3.46541 6.33362 3.1497 6.56226C2.834 6.7909 2.59736 7.11221 2.47266 7.48152L0.9375 12.0337V22.5H4.16051C4.41106 23.3145 4.91612 24.0272 5.60154 24.5334C6.28696 25.0397 7.11663 25.3129 7.96875 25.3129C8.82087 25.3129 9.65054 25.0397 10.336 24.5334C11.0214 24.0272 11.5264 23.3145 11.777 22.5H17.7543C18.0048 23.3145 18.5099 24.0272 19.1953 24.5334C19.8807 25.0397 20.7104 25.3129 21.5625 25.3129C22.4146 25.3129 23.2443 25.0397 23.9297 24.5334C24.6151 24.0272 25.1202 23.3145 25.3707 22.5H29.0625V14.4646C29.064 14.1284 28.9444 13.8028 28.7255 13.5476C28.5066 13.2923 28.203 13.1245 27.8705 13.0748ZM13.125 8.0098L17.7585 7.97289L20.3425 12.1944L13.125 12.1919V8.0098ZM4.24928 8.08059L11.25 8.0248V12.1912L2.86412 12.1882L4.24928 8.08059ZM7.96875 23.4375C7.55156 23.4375 7.14373 23.3138 6.79684 23.082C6.44996 22.8503 6.1796 22.5208 6.01994 22.1354C5.86029 21.7499 5.81852 21.3258 5.89991 20.9166C5.9813 20.5075 6.1822 20.1316 6.4772 19.8366C6.7722 19.5416 7.14805 19.3407 7.55723 19.2593C7.96641 19.1779 8.39053 19.2197 8.77597 19.3794C9.16141 19.539 9.49085 19.8094 9.72263 20.1563C9.95441 20.5031 10.0781 20.911 10.0781 21.3282C10.0775 21.8874 9.85507 22.4236 9.45962 22.819C9.06417 23.2145 8.528 23.4369 7.96875 23.4375ZM21.5625 23.4375C21.1453 23.4375 20.7375 23.3138 20.3906 23.082C20.0437 22.8503 19.7733 22.5208 19.6137 22.1354C19.454 21.7499 19.4123 21.3258 19.4937 20.9166C19.575 20.5075 19.7759 20.1316 20.0709 19.8366C20.3659 19.5416 20.7418 19.3407 21.151 19.2593C21.5602 19.1779 21.9843 19.2197 22.3697 19.3794C22.7552 19.539 23.0846 19.8094 23.3164 20.1563C23.5482 20.5031 23.6719 20.911 23.6719 21.3282C23.6713 21.8874 23.4488 22.4236 23.0534 22.819C22.6579 23.2145 22.1218 23.4369 21.5625 23.4375ZM27.1875 20.625H25.4835C25.3188 19.705 24.8357 18.8721 24.1189 18.2723C23.4021 17.6724 22.4972 17.3437 21.5625 17.3437C20.6278 17.3437 19.7229 17.6724 19.0061 18.2723C18.2893 18.8721 17.8062 19.705 17.6415 20.625H11.8897C11.725 19.705 11.242 18.8721 10.5252 18.2723C9.80837 17.6724 8.90344 17.3437 7.96875 17.3437C7.03406 17.3437 6.12913 17.6724 5.41233 18.2723C4.69552 18.8721 4.2125 19.705 4.04777 20.625H2.8125V14.0641L22.1793 14.0951L27.1875 14.8667V20.625Z" fill="black"/>
</svg>
