<svg width="30" height="30" viewBox="0 0 30 30" fill="none" xmlns="http://www.w3.org/2000/svg">
<path d="M24.1667 20.9167C23.1667 20.9167 22.25 21.25 21.4167 21.8334C20.5 22.75 18.9167 22.75 18 21.8334C17.25 21.1667 16.25 20.8334 15.25 20.8334C14.25 20.8334 13.3333 21.1667 12.5833 21.8334C11.5833 22.75 10.0833 22.75 9.08332 21.8334C8.33332 21.1667 7.33332 20.8334 6.33332 20.8334C5.33332 20.8334 4.33332 21.1667 3.49999 21.75C2.99999 22.25 2.33332 22.5 1.66666 22.5V24.1667C2.74999 24.25 3.74999 23.8334 4.49999 23.1667C5.08332 22.75 5.74999 22.5 6.41666 22.5C7.08332 22.5 7.66666 22.75 8.16666 23.1667C9.74999 24.5 12.0833 24.5 13.5833 23.1667C14.0833 22.75 14.6667 22.5 15.3333 22.5C16 22.5 16.5833 22.75 17.0833 23.1667C18.6667 24.5 20.9167 24.5 22.5 23.1667C22.9167 22.75 23.5833 22.5 24.1667 22.5C24.75 22.5 25.4167 22.75 25.8333 23.1667C26.5833 23.75 27.5 24.0834 28.4167 24.1667V22.5834C27.8333 22.5834 27.25 22.3334 26.8333 21.8334C26.0833 21.1667 25.0833 20.8334 24.1667 20.9167Z" fill="#989898"/>
<path d="M4.91668 19.3333V16.6667H26.6667L23.75 19.1667H23.9167C24.5833 19.1667 25.25 19.3333 25.75 19.5833L27.8333 17.75L28 17.5833C28.4167 17.0833 28.4167 16.4167 28.1667 15.8333C27.8333 15.25 27.3333 15 26.6667 15H23L18.75 9.16667H14.1667C12.75 9.16667 11.6667 10.25 11.6667 11.6667H10V6.75H5.00001V11.8333C4.00001 12.1667 3.33334 13.0833 3.33334 14.1667V20.25L3.41668 20.1667C3.83334 19.75 4.33334 19.5 4.91668 19.3333ZM6.66668 8.33333H8.33334V11.6667H6.66668V8.33333ZM5.00001 14.1667C5.00001 13.6667 5.33334 13.3333 5.83334 13.3333H13.3333V11.6667C13.3333 11.1667 13.6667 10.8333 14.1667 10.8333H18.3333L18.8333 11.6667H15V13.3333H19.8333L20.8333 15.0833H5.00001V14.1667Z" fill="#989898"/>
</svg>
