<svg width="30" height="30" viewBox="0 0 30 30" fill="none" xmlns="http://www.w3.org/2000/svg">
<g clip-path="url(#clip0)">
<path d="M6.5825 12.2063C7.16735 10.4368 8.29607 8.89726 9.80764 7.80725C11.3192 6.71723 13.1364 6.13242 15 6.13625C17.1125 6.13625 19.0225 6.88625 20.5225 8.11375L24.8875 3.75C22.2275 1.43125 18.8188 0 15 0C9.0875 0 3.9975 3.3725 1.55 8.3125L6.5825 12.2063Z" fill="#EA4335"/>
<path d="M20.05 22.5162C18.6875 23.395 16.9575 23.8637 15 23.8637C13.1438 23.8676 11.3335 23.2874 9.8253 22.2054C8.31709 21.1235 7.18743 19.5945 6.59625 17.835L1.54625 21.6687C2.78531 24.1766 4.70283 26.2867 7.08103 27.7594C9.45922 29.2321 12.2028 30.0084 15 30C18.6663 30 22.1687 28.6962 24.7925 26.25L20.0513 22.5162H20.05Z" fill="#34A853"/>
<path d="M24.7925 26.25C27.5362 23.69 29.3175 19.88 29.3175 15C29.3175 14.1125 29.1812 13.1588 28.9775 12.2725H15V18.0688H23.045C22.6488 20.0175 21.5825 21.5263 20.0513 22.5163L24.7925 26.25Z" fill="#4A90E2"/>
<path d="M6.59625 17.835C6.29044 16.9211 6.13509 15.9637 6.13625 15C6.13625 14.0225 6.2925 13.0838 6.5825 12.2063L1.55 8.3125C0.520473 10.3909 -0.0102449 12.6806 6.09682e-07 15C6.09682e-07 17.4 0.556251 19.6625 1.54625 21.6687L6.59625 17.835Z" fill="#FBBC05"/>
</g>
<defs>
<clipPath id="clip0">
<rect width="30" height="30" fill="white"/>
</clipPath>
</defs>
</svg>
