<svg width="100" height="100" viewBox="0 0 100 100" fill="none" xmlns="http://www.w3.org/2000/svg">
<path d="M83.3333 25H70.8333V16.6667C70.8333 12.0417 67.125 8.33334 62.5 8.33334H37.5C32.875 8.33334 29.1667 12.0417 29.1667 16.6667V25H16.6667C12.0417 25 8.33334 28.7083 8.33334 33.3333V79.1667C8.33334 83.7917 12.0417 87.5 16.6667 87.5H83.3333C87.9583 87.5 91.6667 83.7917 91.6667 79.1667V33.3333C91.6667 28.7083 87.9583 25 83.3333 25ZM37.5 16.6667H62.5V25H37.5V16.6667ZM83.3333 79.1667H16.6667V70.8333H83.3333V79.1667ZM83.3333 58.3333H16.6667V33.3333H29.1667V41.6667H37.5V33.3333H62.5V41.6667H70.8333V33.3333H83.3333V58.3333Z" fill="#4A90E2"/>
</svg>
