<svg width="30" height="30" viewBox="0 0 30 30" fill="none" xmlns="http://www.w3.org/2000/svg">
<path d="M15.2812 13.2425L8.39499 20.13L6.05749 19.1587L5.84874 19.37L8.82374 21.3537L10.8087 24.3287L11.0187 24.1187L10.0487 21.7812L16.935 14.8962L22.345 22.7112L22.6075 22.4512L18.9987 12.8312L24.4987 7.33375C24.7064 7.11211 24.8197 6.81843 24.8147 6.51477C24.8098 6.21112 24.687 5.92128 24.4722 5.70654C24.2575 5.49179 23.9676 5.36896 23.664 5.36401C23.3603 5.35905 23.0666 5.47237 22.845 5.68L17.345 11.1787L7.72749 7.57125L7.46499 7.8325L15.2812 13.2425ZM22.0187 26.3462L16.6062 18.53L12.8062 22.33L13.7775 24.6675L10.445 27.9987L7.13874 23.04L2.17874 19.7325L5.51124 16.4L7.84749 17.37L11.6475 13.57L3.83124 8.16L7.13874 4.85375L16.7575 8.46L21.1912 4.02625C21.5155 3.69416 21.9024 3.42972 22.3296 3.24827C22.7568 3.06681 23.2158 2.97195 23.6799 2.96918C24.1441 2.96641 24.6041 3.05578 25.0335 3.23211C25.4628 3.40845 25.8529 3.66824 26.1811 3.99644C26.5093 4.32463 26.769 4.7147 26.9454 5.14404C27.1217 5.57338 27.2111 6.03344 27.2083 6.49757C27.2055 6.9617 27.1107 7.42066 26.9292 7.84786C26.7478 8.27506 26.4833 8.662 26.1512 8.98625L21.7175 13.42L25.325 23.04L22.0175 26.3462H22.0187Z" fill="#999999"/>
</svg>
