<svg width="30" height="30" viewBox="0 0 30 30" fill="none" xmlns="http://www.w3.org/2000/svg">
<path d="M15.2813 13.2425L8.39502 20.13L6.05752 19.1587L5.84877 19.37L8.82377 21.3537L10.8088 24.3287L11.0188 24.1187L10.0488 21.7812L16.935 14.8962L22.345 22.7112L22.6075 22.4512L18.9988 12.8312L24.4988 7.33375C24.7064 7.11211 24.8197 6.81843 24.8148 6.51477C24.8098 6.21112 24.687 5.92128 24.4722 5.70654C24.2575 5.49179 23.9677 5.36896 23.664 5.36401C23.3603 5.35905 23.0667 5.47237 22.845 5.68L17.345 11.1787L7.72752 7.57125L7.46502 7.8325L15.2813 13.2425ZM22.0188 26.3462L16.6063 18.53L12.8063 22.33L13.7775 24.6675L10.445 27.9987L7.13877 23.04L2.17877 19.7325L5.51127 16.4L7.84752 17.37L11.6475 13.57L3.83127 8.16L7.13877 4.85375L16.7575 8.46L21.1913 4.02625C21.5155 3.69416 21.9025 3.42972 22.3297 3.24827C22.7569 3.06681 23.2158 2.97195 23.68 2.96918C24.1441 2.96641 24.6041 3.05578 25.0335 3.23211C25.4628 3.40845 25.8529 3.66824 26.1811 3.99644C26.5093 4.32463 26.7691 4.7147 26.9454 5.14404C27.1217 5.57338 27.2111 6.03344 27.2083 6.49757C27.2056 6.9617 27.1107 7.42066 26.9293 7.84786C26.7478 8.27506 26.4834 8.662 26.1513 8.98625L21.7175 13.42L25.325 23.04L22.0175 26.3462H22.0188Z" fill="black"/>
</svg>
