<svg width="30" height="30" viewBox="0 0 30 30" fill="none" xmlns="http://www.w3.org/2000/svg">
<path d="M10.625 20C11.6605 20 12.5 19.1605 12.5 18.125C12.5 17.0895 11.6605 16.25 10.625 16.25C9.58947 16.25 8.75 17.0895 8.75 18.125C8.75 19.1605 9.58947 20 10.625 20Z" fill="#989898"/>
<path d="M19.375 20C20.4105 20 21.25 19.1605 21.25 18.125C21.25 17.0895 20.4105 16.25 19.375 16.25C18.3395 16.25 17.5 17.0895 17.5 18.125C17.5 19.1605 18.3395 20 19.375 20Z" fill="#989898"/>
<path d="M15 2.5C10 2.5 5 3.125 5 7.5V19.375C5 21.7875 6.9625 23.75 9.375 23.75L7.5 25.625V26.25H10L12.5 23.75H17.5L20 26.25H22.5V25.625L20.625 23.75C23.0375 23.75 25 21.7875 25 19.375V7.5C25 3.125 20 2.5 15 2.5ZM15 5C19.3875 5 21.2 5.6 21.9625 6.25H8.0375C8.8 5.6 10.6125 5 15 5ZM7.5 8.75H13.75V12.5H7.5V8.75ZM22.5 19.375C22.5 20.4125 21.6625 21.25 20.625 21.25H9.375C8.3375 21.25 7.5 20.4125 7.5 19.375V15H22.5V19.375ZM22.5 12.5H16.25V8.75H22.5V12.5Z" fill="#989898"/>
</svg>
